<!-- <svg viewBox="0 0 200 187" xmlns="http://www.w3.org/2000/svg" xmlns:xlink="http://www.w3.org/1999/xlink">
    <mask id="mask0" mask-type="alpha">
        <path d="M190.312 36.4879C206.582 62.1187 201.309 102.826 182.328 134.186C163.346 165.547 
        130.807 187.559 100.226 186.353C69.6454 185.297 41.0228 161.023 21.7403 129.362C2.45775 
        97.8511 -7.48481 59.1033 6.67581 34.5279C20.9871 10.1032 59.7028 -0.149132 97.9666 
        0.00163737C136.23 0.303176 174.193 10.857 190.312 36.4879Z"/>
    </mask>
    <g mask="url(#mask0)">
        <path d="M190.312 36.4879C206.582 62.1187 201.309 102.826 182.328 134.186C163.346 
        165.547 130.807 187.559 100.226 186.353C69.6454 185.297 41.0228 161.023 21.7403 
        129.362C2.45775 97.8511 -7.48481 59.1033 6.67581 34.5279C20.9871 10.1032 59.7028 
        -0.149132 97.9666 0.00163737C136.23 0.303176 174.193 10.857 190.312 36.4879Z"/>
        <image href=""/>
    </g>
</svg>

<svg viewBox="0 0 200 200" xmlns="http://www.w3.org/2000/svg">
  <path fill="#000000" d="M58.8,-24.4C65.1,0.2,51.4,26,29.7,42C8.1,57.9,-21.4,64.1,-42.4,50.6C-63.4,37.2,-75.9,4.2,-67.4,-23.4C-58.9,-51.1,-29.5,-73.4,-1.6,-72.9C26.3,-72.4,52.6,-49,58.8,-24.4Z" transform="translate(100 100)" />
</svg> -->

<svg viewBox="0 0 200 200" xmlns="http://www.w3.org/2000/svg">
  <path d="M61.1,-48.6C76.9,-28.9,85.9,-3.6,80.1,16.9C74.3,37.3,53.7,53,32.3,60.9C11,68.8,-11.1,69,-32.3,61.1C-53.5,53.2,-73.8,37.3,-79,17.2C-84.2,-2.9,-74.4,-27.2,-58.8,-46.9C-43.1,-66.5,-21.6,-81.5,0.5,-81.9C22.6,-82.3,45.3,-68.2,61.1,-48.6Z" transform="translate(100 100)" />
</svg>
